<svg width="114" height="47" viewBox="0 0 114 47" fill="none" xmlns="http://www.w3.org/2000/svg">
<path d="M9.088 36.32C6.50667 36.32 4.50133 35.52 3.072 33.92C1.664 32.32 0.96 30.0693 0.96 27.168C0.96 24.2667 1.664 22.0267 3.072 20.448C4.50133 18.8693 6.50667 18.08 9.088 18.08C11.6693 18.08 13.664 18.8693 15.072 20.448C16.5013 22.0267 17.216 24.2667 17.216 27.168C17.216 30.0693 16.5013 32.32 15.072 33.92C13.664 35.52 11.6693 36.32 9.088 36.32ZM9.088 33.248C10.2613 33.248 11.104 32.768 11.616 31.808C12.1493 30.848 12.416 29.3013 12.416 27.168C12.416 25.056 12.1493 23.5307 11.616 22.592C11.104 21.632 10.2613 21.152 9.088 21.152C7.91467 21.152 7.06133 21.6213 6.528 22.56C6.016 23.4987 5.76 25.0347 5.76 27.168C5.76 29.3013 6.016 30.848 6.528 31.808C7.06133 32.768 7.91467 33.248 9.088 33.248ZM20.1075 10.688H24.8435V36H20.1075V10.688ZM44.574 31.744C44.574 32.7253 44.606 33.4933 44.67 34.048C44.7553 34.6027 44.8833 35.072 45.054 35.456C44.6273 35.6693 44.1153 35.84 43.518 35.968C42.9207 36.096 42.3553 36.16 41.822 36.16C41.2033 36.16 40.7447 36.0107 40.446 35.712C40.1473 35.4133 39.9553 34.912 39.87 34.208C39.2513 34.8907 38.494 35.4133 37.598 35.776C36.7233 36.1387 35.7633 36.32 34.718 36.32C32.862 36.32 31.4433 35.8187 30.462 34.816C29.4807 33.792 28.99 32.32 28.99 30.4V18.4H33.726V30.176C33.726 31.3067 33.8967 32.1173 34.238 32.608C34.6007 33.0773 35.2087 33.312 36.062 33.312C37.5767 33.312 38.8247 32.544 39.806 31.008V18.4H44.574V31.744ZM66.3623 36C66.0849 36 65.3063 36.032 64.0263 36.096C63.4289 36.1387 63.0343 36.16 62.8423 36.16C62.2663 36.16 61.8076 36.0533 61.4663 35.84C61.1249 35.6267 60.8263 35.3067 60.5703 34.88L58.0743 30.368C57.7543 29.7707 57.3596 29.3547 56.8903 29.12C56.4423 28.864 55.7276 28.768 54.7463 28.832L53.9143 28.896V36H49.1783V10.688H53.9143V25.632L54.6183 25.6C55.4076 25.5573 55.9943 25.408 56.3783 25.152C56.7623 24.896 57.1356 24.3947 57.4983 23.648L60.0583 18.4H65.3063L61.7863 24.704C61.4449 25.3013 61.1356 25.7707 60.8583 26.112C60.6023 26.4533 60.2396 26.752 59.7703 27.008C60.4103 27.1787 60.9116 27.4133 61.2743 27.712C61.6369 28.0107 61.9783 28.4373 62.2983 28.992L66.3623 36ZM82.8483 29.376C82.8483 31.1253 82.9123 32.384 83.0403 33.152C83.1896 33.92 83.4776 34.5813 83.9043 35.136C83.4563 35.456 82.8803 35.7227 82.1763 35.936C81.4723 36.128 80.8323 36.224 80.2563 36.224C79.7229 36.224 79.2963 36.032 78.9763 35.648C78.6563 35.264 78.4216 34.656 78.2723 33.824C77.6963 34.72 77.0136 35.36 76.2243 35.744C75.4349 36.128 74.4109 36.32 73.1523 36.32C71.5949 36.32 70.3363 35.904 69.3763 35.072C68.4163 34.2187 67.9363 33.1093 67.9363 31.744C67.9363 29.824 68.7363 28.3947 70.3363 27.456C71.9576 26.496 74.5496 25.92 78.1123 25.728V24.064C78.1123 23.1893 77.8776 22.5387 77.4083 22.112C76.9603 21.6853 76.2669 21.472 75.3283 21.472C74.6456 21.472 73.9629 21.6107 73.2803 21.888C72.6189 22.144 71.7976 22.6027 70.8163 23.264C70.7096 23.3493 70.5603 23.392 70.3683 23.392C69.9843 23.392 69.5683 23.136 69.1203 22.624C68.6936 22.112 68.3096 21.44 67.9683 20.608C68.8003 19.8827 69.9629 19.2853 71.4563 18.816C72.9709 18.3253 74.4643 18.08 75.9363 18.08C78.1549 18.08 79.8616 18.6027 81.0563 19.648C82.2509 20.672 82.8483 22.144 82.8483 24.064V29.376ZM74.8163 33.248C75.4563 33.248 76.0429 33.024 76.5763 32.576C77.1309 32.128 77.6429 31.4347 78.1123 30.496V28.128C76.3416 28.192 74.9976 28.4907 74.0803 29.024C73.1843 29.536 72.7363 30.272 72.7363 31.232C72.7363 31.8507 72.9283 32.3413 73.3123 32.704C73.6963 33.0667 74.1976 33.248 74.8163 33.248ZM102.092 18.4L95.2758 37.344C94.5504 39.3493 93.6864 40.768 92.6838 41.6C91.6811 42.432 90.3264 42.848 88.6198 42.848C87.5531 42.848 86.6891 42.6347 86.0278 42.208C85.3664 41.7813 85.0358 41.2267 85.0358 40.544C85.0358 40.1813 85.0998 39.8507 85.2278 39.552C85.3558 39.2747 85.5798 38.944 85.8997 38.56C86.4331 38.9227 87.0838 39.104 87.8518 39.104C88.6624 39.104 89.2918 38.8587 89.7398 38.368C90.2091 37.8987 90.6571 37.0133 91.0838 35.712L84.8117 18.4H89.6758L93.4838 30.176L97.2278 18.4H102.092Z" fill="white"/>
<path d="M107.297 36.216C105.425 36.216 104.489 35.28 104.489 33.408V32.868C104.489 30.996 105.425 30.06 107.297 30.06H107.801C109.673 30.06 110.609 30.996 110.609 32.868V33.408C110.609 35.28 109.673 36.216 107.801 36.216H107.297Z" fill="#FF0000"/>
</svg>
